<?xml version="1.0" standalone="no"?>
<!DOCTYPE svg PUBLIC "-//W3C//DTD SVG 20010904//EN"
 "http://www.w3.org/TR/2001/REC-SVG-20010904/DTD/svg10.dtd">
<svg version="1.0" xmlns="http://www.w3.org/2000/svg"
 width="500.000000pt" height="500.000000pt" viewBox="0 0 500.000000 500.000000"
 preserveAspectRatio="xMidYMid meet">

<g transform="translate(0.000000,500.000000) scale(0.100000,-0.100000)"
fill="#000000" stroke="none">
<path d="M2885 4635 c-40 -14 -105 -77 -105 -102 0 -17 -14 -16 -92 2 -107 24
-287 35 -415 25 -181 -15 -288 -43 -479 -126 -6 -3 -16 13 -23 35 -14 47 -52
96 -92 116 -17 9 -57 15 -102 15 -68 0 -79 -3 -123 -32 -109 -73 -140 -188
-81 -292 12 -22 37 -46 54 -55 18 -9 33 -20 33 -24 0 -4 -23 -36 -50 -70 -93
-115 -165 -281 -210 -487 -24 -108 -50 -363 -50 -490 0 -75 -3 -90 -26 -123
-65 -96 -165 -324 -222 -507 -48 -154 -60 -199 -87 -315 l-25 -110 20 -27 c17
-24 20 -44 20 -155 1 -330 90 -575 217 -599 54 -10 139 -61 192 -114 26 -25
68 -64 95 -85 l48 -40 -6 -150 c-20 -482 -20 -489 6 -518 52 -59 257 -138 478
-184 107 -22 152 -26 310 -27 185 -1 229 5 311 40 19 9 43 28 52 44 23 38 22
112 -3 159 -23 46 -99 116 -157 144 -42 20 -54 39 -33 52 20 12 11 63 -15 84
-24 18 -26 25 -23 91 l3 70 158 5 157 5 -5 -37 c-24 -173 -31 -353 -15 -384
22 -39 124 -72 362 -114 360 -65 794 -43 890 44 78 70 26 221 -102 298 -45 27
-145 68 -218 89 -10 3 -9 9 4 29 11 18 14 35 10 60 -8 43 -35 56 -84 43 -18
-5 -38 -8 -44 -6 -7 3 -10 38 -9 98 2 104 -5 90 85 163 36 29 107 117 132 162
6 11 35 28 65 38 57 19 89 42 89 62 0 17 34 25 73 18 76 -12 148 87 167 229
16 117 -9 292 -64 443 -22 61 -23 71 -11 85 15 16 19 38 17 75 -5 53 -204 375
-322 519 l-70 86 37 57 c53 83 110 211 128 284 17 76 19 197 4 271 -26 123
-135 256 -242 297 l-51 18 -26 85 c-49 158 -141 306 -250 401 l-39 34 25 48
c29 58 30 86 5 141 -45 98 -168 147 -276 109z m-620 -1510 c110 -41 182 -100
225 -186 30 -58 28 -63 -35 -55 -94 11 -215 48 -215 66 0 4 11 6 26 4 21 -2
23 0 13 12 -7 8 -18 13 -24 10 -7 -2 -19 1 -26 7 -11 10 -11 9 -1 -5 15 -19 0
-34 -20 -22 -46 29 -136 114 -157 149 -24 41 -20 43 76 44 54 1 89 -5 138 -24z
m-186 -522 c25 -20 64 -53 86 -74 62 -57 181 -132 275 -172 82 -35 124 -47
220 -66 l45 -9 -45 -1 c-119 -2 -323 88 -490 216 -62 48 -150 126 -150 134 0
16 11 10 59 -28z m1070 -9 c-66 -119 -163 -214 -274 -269 -76 -37 -85 -40 -85
-26 0 5 12 12 28 16 31 8 108 55 163 100 42 36 139 149 139 163 0 13 41 64 47
59 2 -3 -6 -22 -18 -43z m-389 -288 c18 -22 9 -61 -14 -61 -16 0 -19 7 -19 33
1 17 2 34 2 37 2 10 19 5 31 -9z m328 -36 c12 -12 23 -16 27 -10 13 21 24 9
15 -16 -16 -42 -10 -42 12 1 25 48 33 35 20 -34 -11 -61 -3 -71 26 -31 24 31
109 86 119 76 3 -3 0 -14 -8 -23 -19 -24 -41 -64 -37 -67 2 -2 12 -8 23 -14
19 -11 18 -12 -12 -24 -20 -7 -34 -21 -38 -37 -3 -13 -13 -34 -22 -45 -14 -20
-15 -18 -9 31 l7 52 -46 -16 -46 -15 22 -24 c34 -36 4 -32 -82 11 -49 25 -81
35 -106 33 -21 -2 -38 2 -40 9 -4 11 41 26 85 27 33 1 28 20 -7 30 -17 5 -31
13 -31 19 0 9 21 7 81 -8 34 -9 45 16 24 58 -8 16 -15 32 -15 34 0 9 19 1 38
-17z m-805 -30 c-4 -14 0 -20 11 -20 9 0 16 -4 16 -9 0 -5 13 -19 29 -31 26
-18 37 -19 84 -12 29 5 62 5 73 2 18 -7 17 -7 -3 -18 -12 -7 -38 -12 -57 -12
-20 0 -36 -2 -36 -4 0 -2 -3 -12 -7 -22 -5 -14 -2 -16 20 -11 27 7 57 0 57
-13 0 -4 -12 -10 -27 -13 -16 -3 -41 -11 -58 -17 -29 -11 -29 -12 -11 -26 26
-18 14 -28 -21 -19 -15 5 -36 7 -45 6 -11 -1 -18 4 -18 13 0 21 -1 21 -70 -14
-41 -21 -60 -26 -60 -17 0 7 5 18 12 25 17 17 -20 15 -52 -3 -14 -8 -34 -14
-45 -15 -15 0 -8 12 33 53 29 29 52 59 52 66 0 9 9 12 29 9 21 -3 31 0 34 12
4 15 -1 15 -47 3 -28 -7 -60 -12 -71 -11 -18 3 -18 5 6 21 15 10 50 26 78 36
29 10 59 28 67 40 19 27 34 27 27 1z m543 -46 c9 -50 -15 -74 -76 -74 -56 0
-90 26 -90 69 0 35 25 60 42 43 18 -18 75 -15 82 4 9 25 34 0 42 -42z m-83
-163 c27 -14 36 -31 17 -31 -6 0 0 -18 12 -40 26 -46 38 -51 38 -16 0 36 18
41 52 16 16 -12 32 -19 35 -17 2 3 -5 10 -16 17 -25 13 -27 28 -6 36 9 4 23
-4 36 -20 24 -31 39 -24 59 24 15 37 33 40 24 4 -6 -24 -5 -25 14 -15 26 14
72 14 72 1 0 -5 -16 -16 -35 -24 -43 -18 -46 -31 -4 -22 26 5 30 3 25 -10 -4
-12 -1 -14 14 -9 14 4 20 2 20 -9 0 -27 -30 -35 -73 -20 -51 18 -50 18 -43
-11 l7 -26 -60 31 c-33 16 -63 30 -66 30 -3 0 -5 -12 -5 -26 0 -18 -4 -23 -12
-17 -7 4 -39 8 -70 8 l-57 1 5 -31 6 -30 -27 29 c-23 25 -30 27 -63 20 -20 -4
-41 -8 -47 -9 -5 0 -16 -4 -22 -8 -7 -5 -51 -5 -98 -1 -104 8 -111 28 -11 30
72 1 122 24 53 24 -20 0 -37 4 -37 9 0 8 53 25 105 34 16 3 12 7 -17 20 -49
21 -48 31 2 24 36 -5 42 -2 55 21 l14 27 1 -27 c0 -25 2 -27 24 -17 13 6 27
20 29 31 3 11 9 18 14 16 4 -2 20 -10 36 -17z m290 -277 c4 -21 7 -57 5 -79
-4 -51 -25 -56 -71 -16 -40 36 -51 39 -42 12 7 -22 -15 -43 -33 -32 -7 4 -16
33 -19 64 l-6 57 30 0 c19 0 38 -9 53 -25 32 -34 40 -32 40 13 0 66 29 70 43
6z m-190 -17 c-3 -90 -43 -129 -88 -87 l-23 22 -11 -21 c-21 -39 -56 -27 -85
29 -48 91 -27 125 28 45 13 -18 17 -18 40 -5 24 12 29 11 55 -8 l29 -21 6 24
c22 87 52 100 49 22z m-272 14 c43 -43 38 -91 -12 -116 -58 -31 -129 -13 -150
38 -35 83 94 145 162 78z m-1143 -351 c45 0 50 -6 28 -35 -11 -15 -22 -17 -67
-12 -80 8 -109 22 -109 51 l0 24 53 -14 c28 -7 71 -14 95 -14z m2096 -506 c16
-42 7 -65 -36 -84 -46 -21 -123 -27 -133 -10 -13 21 8 52 53 81 51 32 106 39
116 13z m-204 -87 c0 -14 -125 -67 -165 -70 -39 -3 -31 16 16 40 80 41 149 54
149 30z m-282 -46 c-17 -27 14 -61 54 -61 17 0 27 -4 23 -10 -10 -17 -50 -11
-73 10 -29 28 -29 80 0 80 4 0 3 -9 -4 -19z m342 10 c24 -7 24 -7 -10 -25 -60
-30 -79 -42 -100 -61 -14 -12 -24 -15 -31 -8 -12 12 23 58 65 84 33 20 37 21
76 10z m205 -22 c5 -6 3 -9 -8 -9 -26 0 -158 -68 -188 -96 -24 -23 -59 -33
-59 -16 0 5 20 29 44 53 68 68 175 103 211 68z m-1282 -41 c34 -13 37 -50 5
-72 -32 -23 -152 -21 -198 2 -43 21 -51 53 -18 70 43 21 153 22 211 0z m-540
-42 c-4 -27 -1 -36 18 -50 22 -15 23 -16 3 -16 -28 0 -47 42 -34 75 13 35 20
31 13 -9z m285 18 c-2 -11 -32 -23 -98 -40 -107 -27 -140 -30 -140 -11 0 18
144 66 198 67 35 0 43 -3 40 -16z m821 -6 c12 -33 -4 -58 -37 -58 -33 0 -52
16 -52 45 0 29 8 35 47 35 26 0 36 -5 42 -22z m875 -3 c41 -28 96 -82 96 -94
0 -28 -186 -75 -347 -88 l-87 -6 24 39 c46 77 110 128 198 160 53 19 75 17
116 -11z m-564 -20 c0 -20 46 -30 65 -15 10 8 15 9 15 2 0 -13 -32 -32 -54
-32 -8 0 -22 7 -30 16 -18 17 -21 44 -6 44 6 0 10 -7 10 -15z m-1107 -26 c19
-11 13 -15 -59 -41 -43 -16 -83 -33 -88 -39 -14 -13 -26 -11 -26 4 0 29 87 86
133 87 10 0 28 -5 40 -11z m241 -35 c29 -11 17 -22 -31 -29 -84 -12 -177 -37
-225 -62 -81 -40 -106 -25 -42 24 69 52 238 90 298 67z m1036 -14 c0 -5 -11
-10 -25 -10 -14 0 -25 5 -25 10 0 6 11 10 25 10 14 0 25 -4 25 -10z m-695 -30
c68 -26 255 -61 403 -75 205 -19 386 -19 531 0 132 17 180 29 226 55 37 21 39
20 49 -27 18 -80 -55 -123 -248 -149 -248 -32 -557 -6 -861 73 -118 31 -149
53 -139 101 4 18 8 32 10 32 1 0 14 -4 29 -10z m-820 -10 c-12 -20 16 -41 47
-35 15 4 28 4 28 1 0 -12 -42 -27 -60 -21 -35 11 -50 65 -19 65 6 0 7 -5 4
-10z m-375 -56 c163 -78 290 -113 500 -140 163 -20 411 -15 504 11 32 9 60 14
62 12 2 -2 1 -22 -3 -43 -7 -35 -14 -42 -63 -66 -46 -23 -74 -29 -175 -36
-207 -14 -387 10 -635 85 -97 29 -237 95 -256 121 -14 18 -19 96 -6 90 4 -2
36 -17 72 -34z m1012 -5 c51 -60 53 -67 15 -83 -19 -7 -57 -19 -86 -25 -63
-13 -377 -15 -386 -2 -7 13 41 62 89 91 69 41 151 60 250 57 88 -3 90 -4 118
-38z m-551 -92 c-8 -8 -11 2 -11 34 0 59 14 73 18 19 2 -24 -2 -48 -7 -53z"/>
<path d="M2060 3125 c0 -8 2 -15 4 -15 2 0 6 7 10 15 3 8 1 15 -4 15 -6 0 -10
-7 -10 -15z"/>
<path d="M2090 3071 c0 -6 4 -13 10 -16 6 -3 7 1 4 9 -7 18 -14 21 -14 7z"/>
<path d="M2345 3059 c-4 -6 -5 -12 -2 -15 2 -3 7 2 10 11 7 17 1 20 -8 4z"/>
<path d="M2365 3039 c-4 -6 -4 -13 -1 -16 3 -4 6 -1 6 6 0 8 8 10 23 6 17 -5
19 -4 7 4 -19 14 -27 14 -35 0z"/>
<path d="M2130 3036 c0 -2 7 -7 16 -10 8 -3 12 -2 9 4 -6 10 -25 14 -25 6z"/>
<path d="M2409 2993 c-12 -16 -12 -17 2 -6 12 10 18 10 29 0 12 -10 12 -9 1 6
-7 9 -15 17 -16 17 -1 0 -9 -8 -16 -17z"/>
<path d="M2405 2959 c-4 -6 -5 -12 -2 -15 2 -3 7 2 10 11 7 17 1 20 -8 4z"/>
<path d="M2446 2954 c-5 -14 -4 -15 9 -4 17 14 19 20 6 20 -5 0 -12 -7 -15
-16z"/>
<path d="M2416 2935 c-3 -8 -1 -15 4 -15 6 0 10 7 10 15 0 8 -2 15 -4 15 -2 0
-6 -7 -10 -15z"/>
<path d="M2480 2911 c0 -6 4 -13 10 -16 6 -3 7 1 4 9 -7 18 -14 21 -14 7z"/>
<path d="M3080 2175 c-11 -13 -11 -19 2 -31 8 -8 22 -12 31 -8 22 8 21 17 -2
38 -16 15 -19 15 -31 1z"/>
<path d="M3223 2183 c-18 -7 -16 -23 2 -23 8 0 15 7 15 15 0 8 -1 15 -2 14 -2
0 -9 -3 -15 -6z"/>
<path d="M2263 2173 c-3 -10 -8 -22 -11 -27 -5 -9 39 2 52 14 4 5 -1 13 -13
20 -18 9 -22 8 -28 -7z"/>
<path d="M2290 2120 c-22 -14 -5 -23 20 -10 28 15 41 3 16 -16 -11 -8 -15 -14
-9 -14 11 0 43 32 43 43 0 10 -53 8 -70 -3z"/>
<path d="M2170 2085 c-7 -8 -8 -15 -2 -15 5 0 15 7 22 15 7 8 8 15 2 15 -5 0
-15 -7 -22 -15z"/>
<path d="M2220 2070 c0 -5 6 -10 14 -10 8 0 18 5 21 10 3 6 -3 10 -14 10 -12
0 -21 -4 -21 -10z"/>
<path d="M2666 1961 c-3 -5 1 -11 9 -15 9 -3 15 0 15 9 0 16 -16 20 -24 6z"/>
<path d="M2716 1955 c-3 -9 1 -18 10 -22 21 -8 25 -1 9 20 -11 15 -13 16 -19
2z"/>
<path d="M2606 1908 c-9 -12 -14 -24 -12 -26 6 -6 56 29 56 39 0 17 -29 9 -44
-13z"/>
<path d="M2464 1715 c-10 -26 4 -45 34 -45 16 0 36 7 43 16 11 14 10 18 -6 30
-25 18 -64 18 -71 -1z"/>
<path d="M3448 863 c-14 -2 -32 -11 -38 -19 -10 -11 -9 -14 9 -14 22 0 81 26
81 35 0 5 -6 5 -52 -2z"/>
<path d="M2126 682 c-19 -8 -18 -9 5 -15 38 -10 167 -8 149 3 -22 13 -132 21
-154 12z"/>
</g>
</svg>
